<svg width="16" height="16" viewBox="0 0 16 16" fill="none" xmlns="http://www.w3.org/2000/svg">
<path d="M11.943 5.269C11.9008 5.18796 11.8372 5.12005 11.7591 5.07262C11.681 5.0252 11.5914 5.00008 11.5 5H4.5C4.40854 5.00008 4.31886 5.02524 4.24071 5.07274C4.16256 5.12025 4.09894 5.18828 4.05676 5.26943C4.01459 5.35058 3.99548 5.44175 4.00152 5.533C4.00755 5.62426 4.0385 5.71211 4.091 5.787L7.591 10.787C7.63714 10.8526 7.69839 10.9062 7.76957 10.9431C7.84076 10.9801 7.91979 10.9994 8 10.9994C8.08021 10.9994 8.15924 10.9801 8.23043 10.9431C8.30161 10.9062 8.36286 10.8526 8.409 10.787L11.909 5.787C11.9615 5.71204 11.9925 5.6241 11.9985 5.53276C12.0045 5.44142 11.9853 5.35018 11.943 5.269Z" fill="currentColor"/>
</svg>
