<svg width="16" height="16" viewBox="0 0 16 16" fill="none" xmlns="http://www.w3.org/2000/svg">
  <path d="M15 7.00001H7V4.00001C7.00007 3.81158 6.9469 3.62696 6.84662 3.46743C6.74634 3.3079 6.60302 3.17995 6.43319 3.09833C6.26335 3.0167 6.07391 2.98472 5.88669 3.00607C5.69947 3.02743 5.5221 3.10124 5.375 3.21901L0.375004 7.21901C0.257849 7.31269 0.163272 7.43153 0.0982769 7.56673C0.0332819 7.70192 -0.000465393 7.85 -0.000465393 8.00001C-0.000465393 8.15002 0.0332819 8.2981 0.0982769 8.43329C0.163272 8.56849 0.257849 8.68733 0.375004 8.78101L5.375 12.781C5.5221 12.8988 5.69947 12.9726 5.88669 12.9939C6.07391 13.0153 6.26335 12.9833 6.43319 12.9017C6.60302 12.8201 6.74634 12.6921 6.84662 12.5326C6.9469 12.3731 7.00007 12.1884 7 12V9.00001H15C15.2652 9.00001 15.5196 8.89465 15.7071 8.70712C15.8946 8.51958 16 8.26523 16 8.00001C16 7.73479 15.8946 7.48044 15.7071 7.2929C15.5196 7.10537 15.2652 7.00001 15 7.00001Z" fill="currentColor"/>
</svg>
