<svg width="16" height="16" viewBox="0 0 16 16" fill="none" xmlns="http://www.w3.org/2000/svg">
<g>
<path d="M1.50001 12C1.55301 12 1.60601 11.992 1.65801 11.974L4.65801 10.974C4.73101 10.95 4.79901 10.908 4.85301 10.853L12.854 2.85401C13.049 2.65901 13.049 2.34201 12.854 2.14701L10.854 0.146006C10.659 -0.0489941 10.342 -0.0489941 10.147 0.146006L2.14601 8.14601C2.09101 8.20101 2.04901 8.26801 2.02501 8.34101L1.02501 11.341C0.965006 11.521 1.01201 11.719 1.14601 11.853C1.24201 11.948 1.36901 11.999 1.50001 11.999V12Z" fill="currentColor"/>
<path d="M15 14H1C0.447 14 0 14.448 0 15C0 15.552 0.447 16 1 16H15C15.553 16 16 15.552 16 15C16 14.448 15.553 14 15 14Z" fill="currentColor"/>
</g>
</svg>
