<svg width="16" height="16" viewBox="0 0 16 16" fill="none" xmlns="http://www.w3.org/2000/svg">
<g>
<path d="M12.82 9.116C12.747 9.05519 12.6582 9.01644 12.564 9.00429C12.4697 8.99214 12.374 9.00708 12.288 9.04737C12.2019 9.08767 12.1291 9.15164 12.0781 9.2318C12.0271 9.31196 12 9.40499 12 9.5V11H11.815C11.3873 11 10.9646 10.9085 10.5751 10.7317C10.1857 10.5549 9.83856 10.2969 9.557 9.975L9.157 9.518L7.829 11.037L8.052 11.292C8.52126 11.8284 9.09978 12.2584 9.74879 12.5529C10.3978 12.8475 11.1023 12.9999 11.815 13H12V14.5C12 14.5951 12.027 14.6882 12.0781 14.7684C12.1291 14.8487 12.2019 14.9127 12.288 14.953C12.3544 14.9838 12.4268 14.9998 12.5 15C12.617 14.9999 12.7302 14.9589 12.82 14.884L15.82 12.384C15.8763 12.3371 15.9215 12.2784 15.9526 12.212C15.9837 12.1456 15.9998 12.0733 15.9998 12C15.9998 11.9267 15.9837 11.8544 15.9526 11.788C15.9215 11.7216 15.8763 11.6629 15.82 11.616L12.82 9.116Z" fill="currentColor"/>
<path d="M12.82 1.116C12.747 1.05519 12.6582 1.01644 12.564 1.00429C12.4697 0.992138 12.374 1.00708 12.288 1.04737C12.2019 1.08767 12.1291 1.15164 12.0781 1.2318C12.0271 1.31196 12 1.40499 12 1.5V3H11.815C11.1023 3.00004 10.3978 3.15247 9.74879 3.44705C9.09978 3.74162 8.52126 4.17155 8.052 4.708L3.443 9.975C3.16144 10.2969 2.8143 10.5549 2.42486 10.7317C2.03542 10.9085 1.61269 11 1.185 11H1C0.734784 11 0.48043 11.1054 0.292893 11.2929C0.105357 11.4804 0 11.7348 0 12C0 12.2652 0.105357 12.5196 0.292893 12.7071C0.48043 12.8946 0.734784 13 1 13H1.185C1.89773 12.9999 2.60221 12.8475 3.25121 12.5529C3.90022 12.2584 4.47874 11.8284 4.948 11.292L9.557 6.025C9.83856 5.70307 10.1857 5.44506 10.5751 5.26828C10.9646 5.09149 11.3873 5.00002 11.815 5H12V6.5C12 6.59507 12.027 6.68819 12.0781 6.76842C12.1291 6.84866 12.2019 6.91268 12.288 6.953C12.3544 6.98379 12.4268 6.99982 12.5 7C12.617 6.99994 12.7302 6.9589 12.82 6.884L15.82 4.384C15.8763 4.33707 15.9215 4.27835 15.9526 4.212C15.9837 4.14564 15.9998 4.07326 15.9998 4C15.9998 3.92673 15.9837 3.85435 15.9526 3.788C15.9215 3.72164 15.8763 3.66292 15.82 3.616L12.82 1.116Z" fill="currentColor"/>
<path d="M1 5H1.185C1.61269 5.00003 2.03542 5.0915 2.42486 5.26828C2.8143 5.44506 3.16144 5.70307 3.443 6.025L3.843 6.482L5.171 4.963L4.948 4.708C4.47874 4.17155 3.90022 3.74163 3.25121 3.44705C2.60221 3.15247 1.89773 3.00005 1.185 3H1C0.734784 3 0.48043 3.10536 0.292893 3.29289C0.105357 3.48043 0 3.73478 0 4C0 4.26522 0.105357 4.51957 0.292893 4.70711C0.48043 4.89464 0.734784 5 1 5Z" fill="currentColor"/>
</g>
</svg>
